<mxfile host="app.diagrams.net" agent="Mozilla/5.0 (Windows NT 10.0; Win64; x64) AppleWebKit/537.36 (KHTML, like Gecko) Chrome/138.0.0.0 Safari/537.36" version="28.1.2">
  <diagram name="Page-1" id="Z5onj9KdPykAqMKOFn0P">
    <mxGraphModel dx="1025" dy="451" grid="1" gridSize="10" guides="1" tooltips="1" connect="1" arrows="1" fold="1" page="1" pageScale="1" pageWidth="850" pageHeight="1100" math="0" shadow="0">
      <root>
        <mxCell id="0" />
        <mxCell id="1" parent="0" />
        <mxCell id="7Qpzy2uZBaQzgK8ad0Re-2" value="&lt;b&gt;&lt;font style=&quot;font-size: 14px;&quot;&gt;SYNCH_FIFO&lt;/font&gt;&lt;/b&gt;" style="rounded=0;whiteSpace=wrap;html=1;rotation=90;" parent="1" vertex="1">
          <mxGeometry x="320" y="343" width="190" height="120" as="geometry" />
        </mxCell>
        <mxCell id="7Qpzy2uZBaQzgK8ad0Re-4" value="" style="edgeStyle=none;orthogonalLoop=1;jettySize=auto;html=1;rounded=0;" parent="1" edge="1">
          <mxGeometry width="100" relative="1" as="geometry">
            <mxPoint x="255" y="350" as="sourcePoint" />
            <mxPoint x="355" y="350" as="targetPoint" />
            <Array as="points" />
          </mxGeometry>
        </mxCell>
        <mxCell id="7Qpzy2uZBaQzgK8ad0Re-6" value="" style="edgeStyle=none;orthogonalLoop=1;jettySize=auto;html=1;rounded=0;" parent="1" edge="1">
          <mxGeometry width="100" relative="1" as="geometry">
            <mxPoint x="255" y="380" as="sourcePoint" />
            <mxPoint x="355" y="380" as="targetPoint" />
            <Array as="points" />
          </mxGeometry>
        </mxCell>
        <mxCell id="7Qpzy2uZBaQzgK8ad0Re-8" value="" style="edgeStyle=none;orthogonalLoop=1;jettySize=auto;html=1;rounded=0;" parent="1" edge="1">
          <mxGeometry width="100" relative="1" as="geometry">
            <mxPoint x="255" y="410" as="sourcePoint" />
            <mxPoint x="355" y="410" as="targetPoint" />
            <Array as="points" />
          </mxGeometry>
        </mxCell>
        <mxCell id="7Qpzy2uZBaQzgK8ad0Re-9" value="" style="edgeStyle=none;orthogonalLoop=1;jettySize=auto;html=1;rounded=0;" parent="1" edge="1">
          <mxGeometry width="100" relative="1" as="geometry">
            <mxPoint x="255" y="440" as="sourcePoint" />
            <mxPoint x="355" y="440" as="targetPoint" />
            <Array as="points" />
          </mxGeometry>
        </mxCell>
        <mxCell id="7Qpzy2uZBaQzgK8ad0Re-10" value="" style="edgeStyle=none;orthogonalLoop=1;jettySize=auto;html=1;rounded=0;strokeColor=default;" parent="1" edge="1">
          <mxGeometry width="100" relative="1" as="geometry">
            <mxPoint x="255" y="470" as="sourcePoint" />
            <mxPoint x="355" y="470" as="targetPoint" />
            <Array as="points" />
          </mxGeometry>
        </mxCell>
        <mxCell id="7Qpzy2uZBaQzgK8ad0Re-11" value="clk" style="text;html=1;align=center;verticalAlign=middle;resizable=0;points=[];autosize=1;strokeColor=none;fillColor=none;" parent="1" vertex="1">
          <mxGeometry x="265" y="328" width="40" height="30" as="geometry" />
        </mxCell>
        <mxCell id="7Qpzy2uZBaQzgK8ad0Re-12" value="rst_n" style="text;html=1;align=center;verticalAlign=middle;resizable=0;points=[];autosize=1;strokeColor=none;fillColor=none;" parent="1" vertex="1">
          <mxGeometry x="260" y="358" width="50" height="30" as="geometry" />
        </mxCell>
        <mxCell id="7Qpzy2uZBaQzgK8ad0Re-13" value="wr_en" style="text;html=1;align=center;verticalAlign=middle;resizable=0;points=[];autosize=1;strokeColor=none;fillColor=none;" parent="1" vertex="1">
          <mxGeometry x="255" y="388" width="60" height="30" as="geometry" />
        </mxCell>
        <mxCell id="7Qpzy2uZBaQzgK8ad0Re-15" value="rd_en" style="text;html=1;align=center;verticalAlign=middle;resizable=0;points=[];autosize=1;strokeColor=none;fillColor=none;" parent="1" vertex="1">
          <mxGeometry x="260" y="418" width="50" height="30" as="geometry" />
        </mxCell>
        <mxCell id="oM20z-LlDrCAmSyxh063-1" value="[7:0] wr_data" style="text;html=1;align=center;verticalAlign=middle;resizable=0;points=[];autosize=1;strokeColor=none;fillColor=none;" vertex="1" parent="1">
          <mxGeometry x="240" y="448" width="90" height="30" as="geometry" />
        </mxCell>
        <mxCell id="oM20z-LlDrCAmSyxh063-2" value="" style="edgeStyle=none;orthogonalLoop=1;jettySize=auto;html=1;rounded=0;strokeColor=default;" edge="1" parent="1">
          <mxGeometry width="100" relative="1" as="geometry">
            <mxPoint x="475" y="448" as="sourcePoint" />
            <mxPoint x="575" y="448" as="targetPoint" />
            <Array as="points" />
          </mxGeometry>
        </mxCell>
        <mxCell id="oM20z-LlDrCAmSyxh063-3" value="" style="edgeStyle=none;orthogonalLoop=1;jettySize=auto;html=1;rounded=0;strokeColor=default;" edge="1" parent="1">
          <mxGeometry width="100" relative="1" as="geometry">
            <mxPoint x="475" y="417" as="sourcePoint" />
            <mxPoint x="575" y="417" as="targetPoint" />
            <Array as="points" />
          </mxGeometry>
        </mxCell>
        <mxCell id="oM20z-LlDrCAmSyxh063-4" value="" style="edgeStyle=none;orthogonalLoop=1;jettySize=auto;html=1;rounded=0;strokeColor=default;" edge="1" parent="1">
          <mxGeometry width="100" relative="1" as="geometry">
            <mxPoint x="475" y="387" as="sourcePoint" />
            <mxPoint x="575" y="387" as="targetPoint" />
            <Array as="points" />
          </mxGeometry>
        </mxCell>
        <mxCell id="oM20z-LlDrCAmSyxh063-5" value="" style="edgeStyle=none;orthogonalLoop=1;jettySize=auto;html=1;rounded=0;strokeColor=default;" edge="1" parent="1">
          <mxGeometry width="100" relative="1" as="geometry">
            <mxPoint x="475" y="357" as="sourcePoint" />
            <mxPoint x="575" y="357" as="targetPoint" />
            <Array as="points" />
          </mxGeometry>
        </mxCell>
        <mxCell id="oM20z-LlDrCAmSyxh063-6" value="" style="edgeStyle=none;orthogonalLoop=1;jettySize=auto;html=1;rounded=0;strokeColor=default;" edge="1" parent="1">
          <mxGeometry width="100" relative="1" as="geometry">
            <mxPoint x="475" y="327" as="sourcePoint" />
            <mxPoint x="575" y="327" as="targetPoint" />
            <Array as="points" />
          </mxGeometry>
        </mxCell>
        <mxCell id="oM20z-LlDrCAmSyxh063-7" value="" style="edgeStyle=none;orthogonalLoop=1;jettySize=auto;html=1;rounded=0;strokeColor=default;" edge="1" parent="1">
          <mxGeometry width="100" relative="1" as="geometry">
            <mxPoint x="475" y="478" as="sourcePoint" />
            <mxPoint x="575" y="478" as="targetPoint" />
            <Array as="points" />
          </mxGeometry>
        </mxCell>
        <mxCell id="oM20z-LlDrCAmSyxh063-9" value="full" style="text;html=1;align=center;verticalAlign=middle;resizable=0;points=[];autosize=1;strokeColor=none;fillColor=none;" vertex="1" parent="1">
          <mxGeometry x="495" y="298" width="40" height="30" as="geometry" />
        </mxCell>
        <mxCell id="oM20z-LlDrCAmSyxh063-10" value="empty" style="text;html=1;align=center;verticalAlign=middle;resizable=0;points=[];autosize=1;strokeColor=none;fillColor=none;" vertex="1" parent="1">
          <mxGeometry x="485" y="328" width="60" height="30" as="geometry" />
        </mxCell>
        <mxCell id="oM20z-LlDrCAmSyxh063-11" value="[7: 0] rd_data&amp;nbsp;" style="text;html=1;align=center;verticalAlign=middle;resizable=0;points=[];autosize=1;strokeColor=none;fillColor=none;" vertex="1" parent="1">
          <mxGeometry x="465" y="358" width="100" height="30" as="geometry" />
        </mxCell>
        <mxCell id="oM20z-LlDrCAmSyxh063-12" value="[3:0] count" style="text;html=1;align=center;verticalAlign=middle;resizable=0;points=[];autosize=1;strokeColor=none;fillColor=none;" vertex="1" parent="1">
          <mxGeometry x="475" y="388" width="80" height="30" as="geometry" />
        </mxCell>
        <mxCell id="oM20z-LlDrCAmSyxh063-14" value="almost_full" style="text;html=1;align=center;verticalAlign=middle;resizable=0;points=[];autosize=1;strokeColor=none;fillColor=none;" vertex="1" parent="1">
          <mxGeometry x="475" y="418" width="80" height="30" as="geometry" />
        </mxCell>
        <mxCell id="oM20z-LlDrCAmSyxh063-15" value="almost_empty" style="text;html=1;align=center;verticalAlign=middle;resizable=0;points=[];autosize=1;strokeColor=none;fillColor=none;" vertex="1" parent="1">
          <mxGeometry x="465" y="448" width="100" height="30" as="geometry" />
        </mxCell>
      </root>
    </mxGraphModel>
  </diagram>
</mxfile>
